<svg width="92" height="32" viewBox="0 0 92 32" fill="none" xmlns="http://www.w3.org/2000/svg">
<g clip-path="url(#clip0_42_309)">
<path d="M26.0553 26.1053C26.569 26.1053 26.9943 26.2792 27.3354 26.6229C27.6849 26.9666 27.8533 27.3952 27.8533 27.9044C27.8533 28.4135 27.6849 28.8336 27.3354 29.1858C26.9943 29.5295 26.569 29.7035 26.0553 29.7035H24.9479V31.5789H24.0552V26.1095H26.0553V26.1053ZM26.0553 28.8548C26.5817 28.8548 26.9606 28.456 26.9606 27.9001C26.9606 27.3443 26.5817 26.9454 26.0553 26.9454H24.9479V28.8506H26.0553V28.8548Z" fill="#103559"/>
<path d="M29.1969 30.013C29.326 30.5611 29.829 30.8625 30.5101 30.8625C30.9776 30.8625 31.3292 30.7099 31.5696 30.4163L32.2997 30.7921C31.899 31.3166 31.2981 31.5789 30.5057 31.5789C29.8424 31.5789 29.2993 31.3989 28.8897 31.0465C28.4802 30.6864 28.2754 30.2323 28.2754 29.6842C28.2754 29.1361 28.4802 28.6977 28.8808 28.3375C29.2815 27.9695 29.8068 27.7895 30.4389 27.7895C31.0354 27.7895 31.5296 27.9774 31.9124 28.3454C32.2997 28.7133 32.4956 29.1674 32.4956 29.692C32.4956 29.7703 32.4867 29.8799 32.4644 30.0169H29.2013L29.1969 30.013ZM31.6008 29.3788C31.4761 28.7955 31.0087 28.4902 30.43 28.4902C29.7756 28.4902 29.3171 28.8308 29.1924 29.3788H31.6008Z" fill="#103559"/>
<path d="M35.0277 28.4369H34.0591V30.3176C34.0591 30.8197 34.3862 30.8112 35.0277 30.7814V31.5431C33.7362 31.7005 33.2136 31.3474 33.2136 30.3219V28.4411H32.4956V27.6241H33.2136V26.7774L34.0591 26.5263V27.6241H35.0277V28.4411V28.4369Z" fill="#103559"/>
<path d="M37.1095 29.3452C37.6802 29.4667 38.4197 29.6979 38.4036 30.4699C38.4036 30.8148 38.2629 31.0891 37.9896 31.285C37.7163 31.481 37.3747 31.5789 36.9608 31.5789C36.2294 31.5789 35.6868 31.2615 35.4497 30.7364L36.1369 30.3484C36.2615 30.6933 36.5348 30.8696 36.9568 30.8696C37.3788 30.8696 37.5877 30.7325 37.5877 30.466C37.5877 30.2348 37.2783 30.0976 36.8844 30.0036C36.3298 29.8664 35.5823 29.6509 35.5984 28.8906C35.5984 28.5575 35.723 28.2911 35.9842 28.0912C36.2414 27.8874 36.571 27.7895 36.9528 27.7895C37.5677 27.7895 38.062 28.0716 38.3232 28.5419L37.648 28.9102C37.5234 28.6359 37.2863 28.4988 36.9528 28.4988C36.6514 28.4988 36.4142 28.6281 36.4142 28.8828C36.4142 29.1218 36.7237 29.2433 37.1095 29.3531V29.3452Z" fill="#103559"/>
<path d="M43.4681 26.9101C42.8032 26.856 42.4799 27.11 42.4799 27.6681V27.7431H43.4681V28.5428H42.4799V31.5789H41.5736V28.5428H40.936V27.7431H41.5736V27.6681C41.5736 26.6186 42.2294 26.0438 43.4681 26.1105V26.9101Z" fill="#103559"/>
<path d="M44.5067 31.0309C44.0985 30.6629 43.8901 30.2166 43.8901 29.6842C43.8901 29.1518 44.0985 28.7055 44.5067 28.3375C44.9148 27.9695 45.4184 27.7895 46.0002 27.7895C46.582 27.7895 47.0857 27.9695 47.4938 28.3375C47.9019 28.7055 48.1103 29.1518 48.1103 29.6842C48.1103 30.2166 47.9019 30.6629 47.4938 31.0309C47.0857 31.3989 46.5907 31.5789 46.0002 31.5789C45.4098 31.5789 44.9148 31.3989 44.5067 31.0309ZM46.0002 30.8234C46.3519 30.8234 46.6471 30.7138 46.8859 30.4985C47.1247 30.2832 47.2463 30.0091 47.2463 29.6842C47.2463 29.3593 47.1247 29.0852 46.8859 28.8699C46.6471 28.6546 46.3519 28.545 46.0002 28.545C45.6485 28.545 45.3533 28.6546 45.1145 28.8699C44.8757 29.0852 44.7541 29.3593 44.7541 29.6842C44.7541 30.0091 44.8757 30.2832 45.1145 30.4985C45.3533 30.7138 45.6485 30.8234 46.0002 30.8234Z" fill="#103559"/>
<path d="M49.4016 28.481C49.62 28.02 50.0394 27.7895 50.6423 27.7895V28.659C50.3147 28.6347 50.022 28.7115 49.7729 28.8814C49.5239 29.0472 49.4016 29.3222 49.4016 29.7024V31.5789H48.5322V27.8542H49.4016V28.481Z" fill="#103559"/>
<path d="M56.9725 30.0162C56.9725 30.4621 56.8228 30.8358 56.5195 31.1331C56.2161 31.4303 55.848 31.5789 55.4111 31.5789H53.1743V26.1053H55.2453C55.67 26.1053 56.0341 26.2539 56.3253 26.5426C56.6246 26.8314 56.7702 27.1923 56.7702 27.6212C56.7702 28.0968 56.5923 28.4663 56.2404 28.7381C56.6934 28.9886 56.9684 29.443 56.9684 30.012L56.9725 30.0162ZM54.0318 26.9503V28.3898H55.2453C55.6255 28.3898 55.9168 28.0756 55.9168 27.6722C55.9168 27.2688 55.6255 26.9545 55.2453 26.9545H54.0318V26.9503ZM55.4111 30.7339C55.8075 30.7339 56.119 30.3984 56.119 29.9695C56.119 29.5406 55.8075 29.2052 55.4111 29.2052H54.0318V30.7381H55.4111V30.7339Z" fill="#103559"/>
<path d="M58.7369 30.013C58.8659 30.5611 59.3684 30.8625 60.0488 30.8625C60.5157 30.8625 60.867 30.7099 61.1072 30.4163L61.8365 30.7921C61.4362 31.3166 60.8359 31.5789 60.0443 31.5789C59.3817 31.5789 58.8392 31.3989 58.4301 31.0465C58.021 30.6864 57.8164 30.2323 57.8164 29.6842C57.8164 29.1361 58.021 28.6977 58.4212 28.3375C58.8214 27.9695 59.3462 27.7895 59.9776 27.7895C60.5735 27.7895 61.0671 27.9774 61.454 28.3454C61.8409 28.7133 62.0366 29.1674 62.0366 29.692C62.0366 29.7703 62.0277 29.8799 62.0055 30.0169H58.7458L58.7369 30.013ZM61.1383 29.3788C61.0138 28.7955 60.5469 28.4902 59.9687 28.4902C59.315 28.4902 58.857 28.8308 58.7325 29.3788H61.1427H61.1383Z" fill="#103559"/>
<path d="M63.6964 29.3452C64.2671 29.4667 65.0066 29.6979 64.9905 30.4699C64.9905 30.8148 64.8498 31.0891 64.5765 31.285C64.3033 31.481 63.9617 31.5789 63.5477 31.5789C62.8163 31.5789 62.2737 31.2615 62.0366 30.7364L62.7238 30.3484C62.8484 30.6933 63.1217 30.8696 63.5437 30.8696C63.9657 30.8696 64.1747 30.7325 64.1747 30.466C64.1747 30.2348 63.8652 30.0976 63.4714 30.0036C62.9168 29.8664 62.1692 29.6509 62.1853 28.8906C62.1853 28.5575 62.3099 28.2911 62.5711 28.0912C62.8283 27.8874 63.1579 27.7895 63.5397 27.7895C64.1546 27.7895 64.6489 28.0716 64.9101 28.5419L64.2349 28.9102C64.1104 28.6359 63.8732 28.4988 63.5397 28.4988C63.2383 28.4988 63.0011 28.6281 63.0011 28.8828C63.0011 29.1218 63.3106 29.2433 63.6964 29.3531V29.3452Z" fill="#103559"/>
<path d="M67.9452 28.4369H66.9782V30.3176C66.9782 30.8197 67.3047 30.8112 67.9452 30.7814V31.5431C66.6558 31.7005 66.1341 31.3474 66.1341 30.3219V28.4411H65.4131V27.6241H66.1341V26.7774L66.9782 26.5263V27.6241H67.9452V28.4411V28.4369Z" fill="#103559"/>
<path d="M19.9909 2.57165C19.8804 1.48264 19.4429 1.26315 18.5933 1.26315H14.974C14.1797 1.26315 13.9885 1.39822 13.6869 2.27196L10.9725 11.098L8.25804 2.27196C7.95644 1.39822 7.76528 1.26315 6.97092 1.26315H3.34742C2.49783 1.26315 2.06029 1.48264 1.94985 2.57165L0.0297779 19.8986C-0.050933 20.5233 0.00429027 20.7724 0.552275 20.8526L4.69402 21.452C5.32271 21.5322 5.4629 21.3971 5.54361 20.9328L6.44842 12.8159L8.39398 20.4178C8.58513 21.0425 8.83151 21.2916 9.46446 21.2916H12.4805C13.1092 21.2916 13.3598 21.0467 13.551 20.4178L15.471 12.8159L16.4013 20.9328C16.4821 21.3971 16.6222 21.5322 17.2509 21.452L21.3927 20.8526C21.9407 20.7724 21.9959 20.5276 21.9152 19.8986L19.9909 2.57165Z" fill="#103559"/>
<path d="M29.9634 5.89474C25.3152 5.89474 22.7891 9.08064 22.7891 13.4737C22.7891 17.8667 25.3152 21.0526 29.9634 21.0526C34.6115 21.0526 37.1377 17.8667 37.1377 13.4737C37.1377 9.08064 34.6115 5.89474 29.9634 5.89474ZM29.9634 16.0954C28.8477 16.0954 28.2498 15.05 28.2498 13.4695C28.2498 11.889 28.8477 10.8437 29.9634 10.8437C31.0791 10.8437 31.677 11.889 31.677 13.4695C31.677 15.05 31.0791 16.0954 29.9634 16.0954Z" fill="#103559"/>
<path d="M47.5615 5.90316C46.6086 5.90316 39.4792 6.09247 39.0154 6.74456C38.8257 6.96333 38.8257 7.26203 38.8257 7.77528L39.0449 19.6138C39.0702 20.6993 39.319 21.0526 40.2676 21.0526H43.5899C44.5427 21.0526 44.8126 20.6993 44.8126 19.6138V11.4396C45.2215 11.305 45.3564 11.2503 45.8202 11.2208C46.4442 11.1956 46.7435 11.3849 46.9375 11.8982C47.0724 12.4409 47.1019 13.257 47.1019 14.3677L47.0766 19.6096C47.0766 20.695 47.376 21.0484 48.3288 21.0484H51.7312C52.6841 21.0484 52.9286 20.695 52.9539 19.6096L53.1731 12.3862C53.1984 10.6192 52.819 8.99111 51.9209 7.79632C50.9681 6.60152 49.5515 5.89474 47.5657 5.89474L47.5615 5.90316Z" fill="#103559"/>
<path d="M60.3313 7.57895H56.9114C55.9757 7.57895 55.7065 7.90165 55.7065 8.98708V19.6194C55.7065 20.7006 55.9757 21.0526 56.9114 21.0526H60.3851C61.3208 21.0526 61.6148 20.7006 61.6148 19.6194L61.561 8.98708C61.561 7.93098 61.267 7.57895 60.3313 7.57895Z" fill="#103559"/>
<path d="M58.8717 0.421051C56.8462 0.421051 55.7065 1.66833 55.7065 3.36842C55.7065 5.06851 56.8462 6.31579 58.8717 6.31579C60.8972 6.31579 62.0368 5.06851 62.0368 3.36842C62.0368 1.66833 60.8972 0.421051 58.8717 0.421051Z" fill="#103559"/>
<path d="M73.5577 6.33575H71.454V2.67524C71.454 1.59096 71.1756 1.26315 70.2116 1.26315H66.9468C65.9785 1.26315 65.6743 1.61618 65.6743 2.67524V6.33575H64.0162C63.1036 6.33575 62.8809 6.49965 62.8809 7.34018V10.2988C62.8809 11.1394 63.1036 11.3033 64.0162 11.3033H65.6743V16.4557C65.6743 19.9271 67.5252 21.4737 71.0127 21.4737C72.0367 21.4737 73.0607 21.3938 74.029 21.2005C74.4446 21.1207 74.556 21.0114 74.556 20.6037L74.4189 16.4515C74.4189 16.0985 74.2261 15.964 73.8662 16.0439C73.562 16.1237 73.2578 16.1783 72.8422 16.1783C72.041 16.1783 71.4583 15.9052 71.4583 14.741V11.2949H73.562C74.4746 11.2949 74.6974 11.131 74.6974 10.2904V7.33177C74.6974 6.49125 74.4746 6.32734 73.562 6.32734L73.5577 6.33575Z" fill="#103559"/>
<path d="M82.7158 5.89474C78.0677 5.89474 75.5415 9.08064 75.5415 13.4737C75.5415 17.8667 78.0677 21.0526 82.7158 21.0526C87.364 21.0526 89.8901 17.8667 89.8901 13.4737C89.8901 9.08064 87.364 5.89474 82.7158 5.89474ZM82.7158 16.0954C81.6001 16.0954 81.0022 15.05 81.0022 13.4695C81.0022 11.889 81.6001 10.8437 82.7158 10.8437C83.8315 10.8437 84.4294 11.889 84.4294 13.4695C84.4294 15.05 83.8315 16.0954 82.7158 16.0954Z" fill="#103559"/>
<path d="M91.2242 6.48837C90.7365 6.13657 89.9378 6.33983 89.4334 6.9418C88.9289 7.54377 88.9163 8.31774 89.3997 8.66954C89.8874 9.02134 90.6861 8.81808 91.1905 8.21611C91.695 7.61413 91.7076 6.84017 91.2242 6.48837Z" fill="#103559"/>
<path d="M79.7483 5.46493C80.3215 5.37691 80.697 4.65177 80.5864 3.84281C80.4757 3.03384 79.9262 2.44702 79.353 2.53505C78.7798 2.62307 78.4043 3.34821 78.515 4.15717C78.6256 4.96614 79.1751 5.55296 79.7483 5.46493Z" fill="#103559"/>
<path d="M87.175 6.20874C87.9681 6.60905 89.1685 5.85194 89.852 4.51612C90.5355 3.1803 90.4478 1.77051 89.6505 1.3702C88.8575 0.969888 87.657 1.727 86.9735 3.06282C86.29 4.39864 86.3777 5.80843 87.175 6.20874Z" fill="#103559"/>
<path d="M83.0697 5.0458C83.8689 5.14752 84.6444 4.10073 84.7987 2.71067C84.953 1.31637 84.4307 0.108539 83.6276 0.00682736C82.8284 -0.0948845 82.0529 0.951901 81.8986 2.34196C81.7443 3.73626 82.2665 4.94409 83.0697 5.0458Z" fill="#103559"/>
</g>
<defs>
<clipPath id="clip0_42_309">
<rect width="92" height="32" fill="white"/>
</clipPath>
</defs>
</svg>
