<svg width="115" height="40" viewBox="0 0 115 40" fill="none" xmlns="http://www.w3.org/2000/svg">
<g clip-path="url(#clip0_46_480)">
<path d="M32.569 32.6313C33.2112 32.6313 33.7428 32.8488 34.1691 33.2784C34.606 33.7081 34.8166 34.2438 34.8166 34.8802C34.8166 35.5167 34.606 36.0418 34.1691 36.482C33.7428 36.9116 33.2112 37.1291 32.569 37.1291H31.1847V39.4735H30.0688V32.6367H32.569V32.6313ZM32.569 36.0683C33.227 36.0683 33.7007 35.5697 33.7007 34.8749C33.7007 34.1801 33.227 33.6815 32.569 33.6815H31.1847V36.063H32.569V36.0683Z" fill="#103559"/>
<path d="M36.4961 37.5163C36.6575 38.2014 37.2863 38.5782 38.1377 38.5782C38.7219 38.5782 39.1615 38.3873 39.462 38.0203L40.3746 38.4901C39.8738 39.1458 39.1226 39.4737 38.1321 39.4737C37.303 39.4737 36.6241 39.2486 36.1122 38.8082C35.6002 38.358 35.3442 37.7903 35.3442 37.1052C35.3442 36.4202 35.6002 35.8721 36.101 35.4219C36.6018 34.9619 37.2585 34.7368 38.0486 34.7368C38.7943 34.7368 39.412 34.9717 39.8905 35.4317C40.3746 35.8917 40.6195 36.4593 40.6195 37.115C40.6195 37.2129 40.6083 37.3499 40.5805 37.5212H36.5017L36.4961 37.5163ZM39.501 36.7235C39.3452 35.9944 38.7609 35.6127 38.0375 35.6127C37.2195 35.6127 36.6464 36.0385 36.4905 36.7235H39.501Z" fill="#103559"/>
<path d="M43.7843 35.5459H42.5735V37.8969C42.5735 38.5245 42.9824 38.5139 43.7843 38.4766V39.4287C42.1698 39.6255 41.5166 39.184 41.5166 37.9022V35.5512H40.6191V34.53H41.5166V33.4715L42.5735 33.1577V34.53H43.7843V35.5512V35.5459Z" fill="#103559"/>
<path d="M46.3868 36.6815C47.1001 36.8334 48.0244 37.1224 48.0044 38.0874C48.0044 38.5185 47.8285 38.8613 47.4869 39.1063C47.1453 39.3512 46.7183 39.4737 46.2009 39.4737C45.2866 39.4737 44.6084 39.0769 44.312 38.4205L45.171 37.9355C45.3268 38.3666 45.6684 38.587 46.1959 38.587C46.7233 38.587 46.9846 38.4156 46.9846 38.0825C46.9846 37.7935 46.5977 37.622 46.1054 37.5045C45.4122 37.333 44.4778 37.0636 44.4979 36.1133C44.4979 35.6969 44.6536 35.3638 44.9801 35.114C45.3017 34.8593 45.7136 34.7368 46.1908 34.7368C46.9594 34.7368 47.5773 35.0895 47.9039 35.6773L47.0599 36.1378C46.9042 35.7949 46.6078 35.6234 46.1908 35.6234C45.8141 35.6234 45.5177 35.7851 45.5177 36.1035C45.5177 36.4023 45.9045 36.5542 46.3868 36.6913V36.6815Z" fill="#103559"/>
<path d="M54.3351 33.6374C53.5039 33.5698 53.0997 33.8873 53.0997 34.5849V34.6787H54.3351V35.6782H53.0997V39.4735H51.9669V35.6782H51.1699V34.6787H51.9669V34.5849C51.9669 33.273 52.7866 32.5546 54.3351 32.6379V33.6374Z" fill="#103559"/>
<path d="M55.633 38.7886C55.1228 38.3286 54.8623 37.7707 54.8623 37.1052C54.8623 36.4397 55.1228 35.8819 55.633 35.4219C56.1431 34.9619 56.7727 34.7368 57.4999 34.7368C58.2272 34.7368 58.8567 34.9619 59.3669 35.4219C59.877 35.8819 60.1375 36.4397 60.1375 37.1052C60.1375 37.7707 59.877 38.3286 59.3669 38.7886C58.8567 39.2486 58.238 39.4737 57.4999 39.4737C56.7618 39.4737 56.1431 39.2486 55.633 38.7886ZM57.4999 38.5292C57.9395 38.5292 58.3086 38.3922 58.6071 38.1231C58.9056 37.8539 59.0575 37.5114 59.0575 37.1052C59.0575 36.6991 58.9056 36.3565 58.6071 36.0874C58.3086 35.8183 57.9395 35.6812 57.4999 35.6812C57.0603 35.6812 56.6913 35.8183 56.3928 36.0874C56.0943 36.3565 55.9423 36.6991 55.9423 37.1052C55.9423 37.5114 56.0943 37.8539 56.3928 38.1231C56.6913 38.3922 57.0603 38.5292 57.4999 38.5292Z" fill="#103559"/>
<path d="M61.7518 35.6013C62.0248 35.025 62.549 34.7368 63.3027 34.7368V35.8237C62.8931 35.7934 62.5272 35.8894 62.2159 36.1018C61.9047 36.309 61.7518 36.6528 61.7518 37.128V39.4737H60.665V34.8177H61.7518V35.6013Z" fill="#103559"/>
<path d="M71.2155 37.5201C71.2155 38.0774 71.0284 38.5445 70.6492 38.9161C70.27 39.2877 69.8099 39.4735 69.2638 39.4735H66.4678V32.6313H69.0565C69.5874 32.6313 70.0425 32.8171 70.4065 33.1781C70.7807 33.539 70.9627 33.9902 70.9627 34.5263C70.9627 35.1208 70.7402 35.5826 70.3003 35.9224C70.8666 36.2355 71.2104 36.8035 71.2104 37.5148L71.2155 37.5201ZM67.5397 33.6877V35.4871H69.0565C69.5318 35.4871 69.8958 35.0943 69.8958 34.59C69.8958 34.0858 69.5318 33.693 69.0565 33.693H67.5397V33.6877ZM69.2638 38.4171C69.7593 38.4171 70.1486 37.9978 70.1486 37.4617C70.1486 36.9256 69.7593 36.5062 69.2638 36.5062H67.5397V38.4225H69.2638V38.4171Z" fill="#103559"/>
<path d="M73.4212 37.5163C73.5824 38.2014 74.2105 38.5782 75.061 38.5782C75.6447 38.5782 76.0838 38.3873 76.384 38.0203L77.2956 38.4901C76.7953 39.1458 76.0449 39.4737 75.0554 39.4737C74.2272 39.4737 73.549 39.2486 73.0376 38.8082C72.5262 38.358 72.2705 37.7903 72.2705 37.1052C72.2705 36.4202 72.5262 35.8721 73.0265 35.4219C73.5268 34.9619 74.1827 34.7368 74.9721 34.7368C75.7169 34.7368 76.3339 34.9717 76.8175 35.4317C77.3012 35.8917 77.5457 36.4593 77.5457 37.115C77.5457 37.2129 77.5346 37.3499 77.5068 37.5212H73.4323L73.4212 37.5163ZM76.4229 36.7235C76.2672 35.9944 75.6836 35.6127 74.9609 35.6127C74.1438 35.6127 73.5712 36.0385 73.4156 36.7235H76.4284H76.4229Z" fill="#103559"/>
<path d="M79.6206 36.6815C80.334 36.8334 81.2583 37.1224 81.2382 38.0874C81.2382 38.5185 81.0624 38.8613 80.7208 39.1063C80.3792 39.3512 79.9522 39.4737 79.4348 39.4737C78.5205 39.4737 77.8423 39.0769 77.5459 38.4205L78.4049 37.9355C78.5607 38.3666 78.9023 38.587 79.4297 38.587C79.9572 38.587 80.2184 38.4156 80.2184 38.0825C80.2184 37.7935 79.8316 37.622 79.3393 37.5045C78.6461 37.333 77.7117 37.0636 77.7318 36.1133C77.7318 35.6969 77.8875 35.3638 78.214 35.114C78.5355 34.8593 78.9475 34.7368 79.4247 34.7368C80.1933 34.7368 80.8112 35.0895 81.1378 35.6773L80.2938 36.1378C80.1381 35.7949 79.8417 35.6234 79.4247 35.6234C79.0479 35.6234 78.7516 35.7851 78.7516 36.1035C78.7516 36.4023 79.1384 36.5542 79.6206 36.6913V36.6815Z" fill="#103559"/>
<path d="M84.9313 35.5459H83.7225V37.8969C83.7225 38.5245 84.1307 38.5139 84.9313 38.4766V39.4287C83.3195 39.6255 82.6674 39.184 82.6674 37.9022V35.5512H81.7661V34.53H82.6674V33.4715L83.7225 33.1577V34.53H84.9313V35.5512V35.5459Z" fill="#103559"/>
<path d="M24.9886 3.21472C24.8505 1.85346 24.3036 1.5791 23.2416 1.5791H18.7175C17.7246 1.5791 17.4856 1.74794 17.1086 2.84011L13.7156 13.8726L10.3226 2.84011C9.94555 1.74794 9.7066 1.5791 8.71364 1.5791H4.18428C3.12229 1.5791 2.57537 1.85346 2.43731 3.21472L0.0372224 24.8735C-0.0636662 25.6543 0.00536284 25.9656 0.690344 26.0659L5.86752 26.8151C6.65339 26.9154 6.82862 26.7465 6.92951 26.1661L8.06052 16.02L10.4925 25.5224C10.7314 26.3033 11.0394 26.6146 11.8306 26.6146H15.6006C16.3865 26.6146 16.6998 26.3086 16.9387 25.5224L19.3388 16.02L20.5017 26.1661C20.6026 26.7465 20.7778 26.9154 21.5637 26.8151L26.7409 26.0659C27.4258 25.9656 27.4949 25.6596 27.394 24.8735L24.9886 3.21472Z" fill="#103559"/>
<path d="M37.4542 7.36865C31.644 7.36865 28.4863 11.351 28.4863 16.8423C28.4863 22.3337 31.644 26.316 37.4542 26.316C43.2644 26.316 46.4221 22.3337 46.4221 16.8423C46.4221 11.351 43.2644 7.36865 37.4542 7.36865ZM37.4542 20.1195C36.0596 20.1195 35.3122 18.8128 35.3122 16.8372C35.3122 14.8615 36.0596 13.5548 37.4542 13.5548C38.8489 13.5548 39.5962 14.8615 39.5962 16.8372C39.5962 18.8128 38.8489 20.1195 37.4542 20.1195Z" fill="#103559"/>
<path d="M59.452 7.37917C58.2609 7.37917 49.3491 7.61581 48.7694 8.43092C48.5322 8.70438 48.5322 9.07775 48.5322 9.71933L48.8063 24.5175C48.8379 25.8743 49.1488 26.316 50.3346 26.316H54.4875C55.6785 26.316 56.0158 25.8743 56.0158 24.5175V14.2997C56.527 14.1314 56.6957 14.0631 57.2754 14.0263C58.0554 13.9947 58.4296 14.2314 58.672 14.8729C58.8406 15.5513 58.8775 16.5715 58.8775 17.9598L58.8459 24.5123C58.8459 25.869 59.2201 26.3108 60.4111 26.3108H64.6641C65.8552 26.3108 66.1609 25.869 66.1925 24.5123L66.4665 15.4829C66.4981 13.2743 66.0238 11.2391 64.9013 9.74562C63.7102 8.25213 61.9395 7.36865 59.4572 7.36865L59.452 7.37917Z" fill="#103559"/>
<path d="M75.4138 9.47363H71.1389C69.9692 9.47363 69.6328 9.877 69.6328 11.2338V24.5241C69.6328 25.8757 69.9692 26.3157 71.1389 26.3157H75.481C76.6507 26.3157 77.0181 25.8757 77.0181 24.5241L76.9509 11.2338C76.9509 9.91367 76.5834 9.47363 75.4138 9.47363Z" fill="#103559"/>
<path d="M73.5892 0.526367C71.0573 0.526367 69.6328 2.08547 69.6328 4.21058C69.6328 6.33569 71.0573 7.89479 73.5892 7.89479C76.1211 7.89479 77.5457 6.33569 77.5457 4.21058C77.5457 2.08547 76.1211 0.526367 73.5892 0.526367Z" fill="#103559"/>
<path d="M91.9471 7.91984H89.3176V3.34421C89.3176 1.98886 88.9694 1.5791 87.7644 1.5791H83.6835C82.4731 1.5791 82.0929 2.02038 82.0929 3.34421V7.91984H80.0203C78.8796 7.91984 78.6011 8.12472 78.6011 9.17538V12.8737C78.6011 13.9244 78.8796 14.1293 80.0203 14.1293H82.0929V20.5698C82.0929 24.909 84.4065 26.8423 88.7659 26.8423C90.0459 26.8423 91.3259 26.7424 92.5362 26.5008C93.0557 26.401 93.195 26.2644 93.195 25.7548L93.0236 20.5646C93.0236 20.1233 92.7826 19.9552 92.3327 20.055C91.9525 20.1548 91.5722 20.2231 91.0528 20.2231C90.0513 20.2231 89.3229 19.8816 89.3229 18.4265V14.1187H91.9525C93.0932 14.1187 93.3717 13.9139 93.3717 12.8632V9.16488C93.3717 8.11422 93.0932 7.90934 91.9525 7.90934L91.9471 7.91984Z" fill="#103559"/>
<path d="M103.395 7.36865C97.5845 7.36865 94.4268 11.351 94.4268 16.8423C94.4268 22.3337 97.5845 26.316 103.395 26.316C109.205 26.316 112.363 22.3337 112.363 16.8423C112.363 11.351 109.205 7.36865 103.395 7.36865ZM103.395 20.1195C102 20.1195 101.253 18.8128 101.253 16.8372C101.253 14.8615 102 13.5548 103.395 13.5548C104.789 13.5548 105.537 14.8615 105.537 16.8372C105.537 18.8128 104.789 20.1195 103.395 20.1195Z" fill="#103559"/>
<path d="M114.03 8.11025C113.42 7.67049 112.422 7.92457 111.791 8.67704C111.161 9.4295 111.145 10.397 111.749 10.8367C112.359 11.2765 113.357 11.0224 113.988 10.2699C114.618 9.51745 114.634 8.55 114.03 8.11025Z" fill="#103559"/>
<path d="M99.685 6.831C100.401 6.72097 100.871 5.81455 100.733 4.80334C100.594 3.79213 99.9074 3.05861 99.1909 3.16864C98.4744 3.27867 98.005 4.18509 98.1433 5.1963C98.2817 6.20751 98.9685 6.94103 99.685 6.831Z" fill="#103559"/>
<path d="M108.969 7.76108C109.96 8.26147 111.461 7.31509 112.315 5.64531C113.169 3.97554 113.06 2.2133 112.063 1.71291C111.072 1.21252 109.571 2.15891 108.717 3.82868C107.863 5.49846 107.972 7.2607 108.969 7.76108Z" fill="#103559"/>
<path d="M103.837 6.30726C104.836 6.4344 105.805 5.12591 105.998 3.38834C106.191 1.64546 105.538 0.135674 104.534 0.0085342C103.535 -0.118606 102.566 1.18988 102.373 2.92745C102.18 4.67033 102.833 6.18012 103.837 6.30726Z" fill="#103559"/>
</g>
<defs>
<clipPath id="clip0_46_480">
<rect width="115" height="40" fill="white"/>
</clipPath>
</defs>
</svg>
